<?xml version="1.0" encoding="UTF-8"?>
<svg id="_레이어_2" data-name="레이어 2" xmlns="http://www.w3.org/2000/svg" viewBox="0 0 393.21 169.32">
  <defs>
    <style>
      .cls-1 {
        fill: #fff;
      }
    </style>
  </defs>
  <g id="_레이어_1-2" data-name="레이어 1">
    <path class="cls-1" d="M391.56,57.08c-.56-.99-1.03-1.45-6.21-6.21-2.4-2.21-3.61-3.32-3.88-3.5-4.38-2.87-9.87-1.77-11.26-1.55-9.84,1.56-25.79-7.33-36.51-12.04-21.86-9.6-42.98-11.06-51.65-11.65-5.59-.38-9.93-.33-58.26,7.77-12.61,2.11-57.12,9.66-56.7,14.37.12,1.39,4.15,2.36,3.88,3.88-.24,1.35-3.65,1.81-4.66,1.94-8.59,1.09-14-2.75-22.14-4.27-11.2-2.1-19.42-.39-19.42-.39,0,0,1.98-3.02,9.32-10.1,8.93-8.61,9.85-10.58,10.1-12.43.75-5.6-4.6-10.59-6.99-12.82-8.57-7.99-25.22-14.29-39.61-6.6-1.05.56-13.92,7.67-15.54,20.2-1.38,10.66,4.27,20.2,4.27,20.2,0,0-29.74-2.63-59.81,8.16C12.59,57.02-1.15,66.4.08,70.68c.74,2.58,7.35,4.82,12.43,3.5,3.4-.89,5.23-3.14,8.16-2.33,2.25.62,2.56,2.34,4.66,2.72,2.94.52,5.69-2.25,6.6-3.11,9.09-8.59,31.79-12.7,38.84-13.98,9.21-1.67,18.64.78,18.64.78,0,0-1.65,9.92,2.33,17.48,2.8,5.31,6.99,10.1,6.99,10.1,0,0-2.58,2.92-5.44,5.05-6.72,5-12.76,5.62-17.48,6.99-8.85,2.57-14.19,8.19-24.86,19.42-10.63,11.19-7.75,12.72-15.92,19.42-9.42,7.72-15.07,7.18-20.97,15.54-3.62,5.12-6.96,13.05-4.27,15.92,2.13,2.28,7.39.68,10.87-.39,7.05-2.15,9.31-5.13,14.76-8.16,7.44-4.13,8.35-1.42,22.14-5.83,9.08-2.9,14.84-4.81,19.81-10.1,2.44-2.59,2.34-3.5,6.99-12.04,6.32-11.61,9.48-17.41,13.98-22.14,3.07-3.23,9.34-9.81,19.42-12.04,12.88-2.85,23.64,3.23,26.02,4.66,7.09,4.25,7.96,8.09,22.14,29.13,13.65,20.26,17.29,23.28,22.14,24.86,7.62,2.47,9.1-1.62,21.36,0,14.71,1.94,16.61,8.37,26.02,6.99,9.11-1.33,7.93-7.45,19.81-10.49,8.28-2.12,12.47-.07,19.81-4.27,2.32-1.33,6.9-3.95,7.38-8.16.1-.86.21-3.37-5.44-9.71-7.9-8.87-17.48-15.54-17.48-15.54-3.19-2.22-5.93-3.88-5.83-6.21.11-2.58,3.62-4.34,4.27-4.66,5.02-2.51,10.63-.94,18.64,1.94,10.32,3.71,17.95,7.2,21.75,8.93,21.05,9.59,20.57,8.96,22.53,10.49,10.67,8.34,10.2,16.28,19.03,17.87,3.23.58,6.97.26,14.37-.39,9.44-.82,8.78-1.77,13.2-1.55,8.42.41,11.21,3.86,17.09,1.94.93-.3,4.98-1.63,5.44-4.27.46-2.67-3.01-5.31-6.99-8.16-8.83-6.31-15.12-10.03-18.25-12.04-12.48-7.98-11.19-11.85-21.75-17.48-4.79-2.55-9.02-3.64-17.48-5.83-8.52-2.2-20.98-4.67-36.9-8.54-4.12-1-9.9-2.49-11.26-6.6-.6-1.82-.11-3.44.78-6.21,2.17-6.79,4.87-7.61,7.38-13.59,2.19-5.22.67-5.89,3.11-11.65,1.22-2.9,5.83-9.32,5.83-9.32,0,0,10.46-1.53,29.91,5.05,20.66,6.99,31.04,10.51,33.4,12.04,8.97,5.82,12.9,11.3,22.14,12.04,1.27.1,10.62.75,12.82-3.88,1.47-3.1-.88-7.26-1.17-7.77ZM236.94,133.63c-.27.53-.55.59-3.98,3.31-5.42,4.32-5.29,4.62-6.29,4.97-3.73,1.31-6.06-2.71-13.25-5.63-8.61-3.5-11.91-.46-15.9-3.98-4.13-3.64-1.8-7.97-4.31-14.58-2.41-6.35-6.72-8.02-27.49-20.87-16.28-10.07-19.36-12.58-22.53-15.9-5.63-5.89-11.26-22.19-11.26-22.19,0,0,8.32-2.22,14.91-1.33,3.18.43,8.5,1.41,25.84,7.95,6.8,2.57,12.25,4.78,18.55,3.31,2.8-.65,5.15-1.39,5.7-2.87.58-1.56.17-2.52-.14-4.52-.16-1.03-.59-3.21-.59-3.21,0,0,2.55.21,4.97,0,1.52-.13,2.66-.72,4.64-1.99,5.25-3.37,6.65-5.3,10.27-7.62,3.51-2.25,7-4.49,9.94-3.31,3.2,1.29,4.06,5.97,4.31,7.29,1.29,7.04-2.24,11.54-6.29,20.87-4.5,10.35-8.64,19.88-6.29,29.81,1.2,5.09,3.78,8.88,6.29,12.59,6.59,9.7,14.76,14.34,12.92,17.89ZM281.36,52.25c-1.09,9.21-13.69,9.89-17.47,16.26-2.02,3.41-13.96,2.5-21.23-7.23-.52-.69-5.24-7.23-3.31-15.51,2.04-8.77,10.27-14.06,17.77-15.06,9.22-1.23,15.83,4.21,16.71,4.97,1.39,1.19,8.59,7.63,7.53,16.56Z"/>
  </g>
</svg>