<?xml version="1.0" encoding="UTF-8"?>
<svg id="_레이어_2" data-name="레이어 2" xmlns="http://www.w3.org/2000/svg" viewBox="0 0 541.8 175.58">
  <defs>
    <style>
      .cls-1 {
        font-family: MoolongChocolateVF-Melt, 'Moolong Chocolate VF';
        font-variation-settings: 'MELT' 1000;
      }

      .cls-2 {
        font-size: 27.19px;
      }

      .cls-3 {
        font-family: HellofontIDManHei-GBpc-EUC-H, 'HelloFont ID ManHei';
      }
    </style>
  </defs>
  <g id="_레이어_1-2" data-name="레이어 1">
    <g>
      <g id="_타이포" data-name="타이포">
        <path d="M48.72,20.1c1.87-.39,3.8-.11,5.7,0s3.92.02,5.54-1,2.6-3.23,1.7-4.91c-1-1.85-3.52-2.09-5.62-2.1-7.02-.02-14.07-.04-21.04.88-4.04.54-8.06,1.39-12.14,1.48-3.66.07-7.4-.47-10.93.5-3.16.87-5.86,2.87-8.48,4.85-.97.73-1.96,1.48-2.65,2.48s-1.05,2.31-.62,3.45c.42,1.13,1.55,1.9,2.73,2.13s2.42,0,3.56-.39c3.02-1.03,5.56-3.11,8.35-4.66,5.04-2.79,10.89-3.83,16.65-3.86s11.59,2.34,17.25,1.16Z"/>
        <path d="M28.75,47.99c-.1-1.59-1.19-3-2.55-3.84s-2.95-1.2-4.53-1.44c-3.96-.6-8.02-.51-11.95.25-1.98.39-4.64.63-5.44-1.23-.43-.99-.01-2.19.74-2.97s1.77-1.23,2.77-1.65c14.15-5.88,29.58-7.89,44.85-9.14,5.63-.46,11.56-.76,16.62,1.73,1.77.87,3.42,2.11,4.45,3.8s1.36,3.87.56,5.67c-1.28,2.89-4.98,3.95-8.1,3.44s-5.91-2.17-8.85-3.33c-5.96-2.35-12.72-2.6-18.83-.7-1.04.32-2.16.8-2.62,1.79-.78,1.68.88,3.51,2.59,4.22,3.69,1.53,8.42.79,11.24,3.61,2.03,2.02,2.37,5.3,4.39,7.33,1.27,1.28,3.04,1.9,4.73,2.5s3.45,1.28,4.65,2.63,1.59,3.58.39,4.92c-1.05,1.18-2.84,1.26-4.41,1.26-2.56,0-5.43-.13-7.22-1.97-1.95-2-1.88-5.26-3.51-7.52-1.64-2.26-4.73-3.07-7.5-2.7s-5.3,1.71-7.75,3.03c-5.71,3.09-11.55,6.38-15.48,11.55-1.99,2.61-3.44,5.66-5.81,7.93-1.28,1.22-2.89,2.22-4.66,2.33s-3.68-.82-4.28-2.49c-.53-1.47.02-3.12.87-4.43s1.99-2.41,2.82-3.74c1.25-2,1.73-4.43,3.12-6.34,1.69-2.34,4.49-3.59,7.22-4.51s5.61-1.65,7.96-3.31,3.66-4.52,3.52-6.68Z"/>
        <path d="M89.73,2.5c-1.65-1.36-4.35,0-5.12,1.99s-.21,4.23.35,6.29c1.83,6.74,3.66,13.48,5.49,20.21,1.01,3.71,1.95,7.91-.03,11.2-1.57,2.59-4.66,3.94-7.68,4.2s-6.03-.4-9-.97c-2.32-.45-5.14-.67-6.63,1.17-1.63,2.01-.27,5.3,2.06,6.42s5.11.62,7.55-.25,4.79-2.09,7.36-2.38,5.52.61,6.64,2.95c1.03,2.16.16,4.76-1.1,6.8s-2.94,3.87-3.69,6.14-.18,5.27,2.01,6.23c2.56,1.12,5.38-1.2,6.55-3.73s1.5-5.48,3.2-7.69c1.59-2.07,4.11-3.17,6.14-4.8,3.74-3,5.75-7.87,5.75-12.66,0-4.79-1.89-9.47-4.78-13.3-3.43-4.54-8.4-8.25-9.85-13.75-.69-2.62-.5-5.39-1.02-8.05s-2.5-4.6-4.18-5.98Z"/>
        <path d="M109.81,75.22c-.43-2.7-1.67-5.8-4.35-6.35-2.58-.53-4.84,1.61-6.92,3.23-5.96,4.66-13.78,5.98-21.14,7.73-10.05,2.4-20.17,6.1-27.57,13.31-3.1,3.01-5.78,7.07-5.2,11.35.31,2.26,1.51,4.32,3,6.05,3.86,4.48,9.65,6.99,15.51,7.79,5.86.8,11.82.03,17.61-1.18,2.53-.53,5.19-1.21,7-3.06,1.03-1.05,1.7-2.4,2.62-3.55s2.97-1.34,3.71-1.36c6.63-.21,9.88-8.64,12.81-14.59s3.97-12.83,2.91-19.38ZM98.67,85.9c-.98,1.06-2.36,1.67-3.72,2.14-4.06,1.42-8.37,1.94-12.57,2.9-4.19.96-8.42,2.45-11.54,5.41-.86.81-1.63,1.74-2.67,2.32s-2.43.71-3.33-.06c-1.16-1-.83-3,.26-4.07,1.09-1.07,2.66-1.46,4.15-1.8,7.94-1.83,14.67-7.46,22.05-11.27,1.38-.71,2.81-1.44,4.36-1.55,1.55-.11,3.26.56,3.9,1.98.59,1.32.09,2.93-.9,3.99Z"/>
        <path d="M160.61,21.93c-1.62-1.73-2.89-3.97-1.64-5.98s3.8-2.89,6.17-2.82,4.63.93,6.87,1.7c5.02,1.74,10.17,3.11,15.39,4.09,2.72.51,5.75.86,8.06-.66,2.78-1.83,3.27-6.29.97-8.69-1.69-1.75-4.26-2.23-6.66-2.63-3.01-.49-6.02-.99-9.03-1.48C163.93,2.71,147.04-.05,130.01,0c-6.35.02-13.45.78-17.56,5.63-1.01,1.2-1.8,2.65-1.89,4.22s.64,3.23,2.03,3.96c1.09.57,2.4.51,3.6.24,3.59-.8,6.97-3.3,10.58-2.62,4.44.83,6.72,5.96,10.81,7.87,1.65.77,3.51.97,5.26,1.47s3.55,1.43,4.32,3.08c1.02,2.18-.17,4.87-2.06,6.36s-4.31,2.08-6.63,2.71c-4.43,1.19-8.86,2.65-12.62,5.27-3.76,2.62-6.82,6.54-7.5,11.07-.25,1.68-.08,3.61,1.17,4.76,1.15,1.05,2.88,1.14,4.44.97,2.26-.24,4.48-.9,6.5-1.93,2.35-1.2,4.42-2.88,6.47-4.55,3.55-2.9,7.1-5.79,10.66-8.69,1.88-1.53,3.83-3.1,6.16-3.78,3.3-.96,6.9.04,9.84,1.83,2.93,1.79,5.33,4.3,7.81,6.68,2.21,2.12,4.77,4.28,7.83,4.39,4.42.15,8-4.54,7.56-8.94-.43-4.4-4.01-8.03-8.15-9.59-3.3-1.24-6.91-1.38-10.3-2.33s-5.55-3.82-7.72-6.14Z"/>
        <path d="M200.37,66.56c2.7-.84,5.68,1.51,6.09,4.31s-1.27,5.6-3.61,7.18-5.22,2.14-8.04,2.37c-5.17.4-10.35-.21-15.52-.55-3.5-.23-7.21-.29-10.29,1.39-2.93,1.59-4.85,4.51-6.9,7.14-3.29,4.24-7.18,8.02-11.52,11.18-2.61,1.9-5.5,3.7-7.05,6.54-.98,1.79-1.36,3.87-2.44,5.6-1.48,2.37-4.08,3.77-6.56,5.06-1.29.67-2.76,1.35-4.13.87-1.46-.52-2.15-2.14-2.63-3.62-1.92-5.89-2.92-12.5-.4-18.16,1.95-4.38,5.81-7.67,10.03-9.93,4.22-2.27,8.86-3.64,13.39-5.19,2.42-.83,5.3-2.43,5.05-4.97-.14-1.46-1.39-2.61-2.77-3.11s-2.88-.45-4.35-.4c-7.02.24-14.04.48-21.06.72-1.34.05-2.7.09-3.98-.3s-2.48-1.29-2.87-2.57c-.43-1.42.26-2.99,1.34-4s2.51-1.56,3.92-2.02c7.52-2.46,15.5-3.09,23.4-3.47,9.2-.45,18.72-.53,27.22,3.01,2.77,1.15,5.4,2.68,8.29,3.45,5.22,1.39,10.89.88,15.37-.51Z"/>
        <path d="M251.27,11.91c6.59,2.52,14.26,2,20.45-1.38,1.98-1.08,4.02-2.9,3.74-5.14-.26-2.04-2.45-3.36-4.51-3.45s-4.03.7-6,1.3c-13.11,3.98-27.48-.58-40.87,2.33-2.26.49-4.73,1.41-5.66,3.53-1.14,2.59.89,5.77,3.6,6.58s5.67-.24,7.95-1.91c1.82-1.34,3.4-3.1,5.51-3.92,2.06-.8,4.36-.59,6.56-.37,3.48.35,6.76,1.49,9.23,2.44Z"/>
        <path d="M250.41,26.82c8.59-1.76,17.58,2.39,26.17.64,1.52-.31,3.15-.93,3.82-2.33.62-1.3.15-2.92-.77-4.03s-2.22-1.83-3.48-2.53c-2.37-1.3-4.91-2.64-7.6-2.45-2.05.14-3.92,1.16-5.86,1.84-3.2,1.13-6.64,1.38-10.03,1.62-10.61.75-21.22,1.49-31.84,2.24-1.85.13-3.87.33-5.18,1.64-1.96,1.96-1.17,5.56.98,7.3s5.14,2.02,7.9,1.83c1.83-.13,3.74-.41,5.45.24s3.08,2.69,2.26,4.33c-.57,1.14-1.89,1.63-3.04,2.17-4.81,2.26-8.07,6.81-11.1,11.17-1.4,2.01-2.82,4.05-3.63,6.36s-.97,4.97.15,7.15,3.69,3.7,6.06,3.09c2.38-.61,3.87-3.03,4.43-5.43s.44-4.9.94-7.31c.8-3.85,3.3-7.4,6.84-9.11s8.07-1.4,11.14,1.06c3.48,2.79,4.61,7.6,7.48,11.01,2.02,2.4,4.8,4.01,7.59,5.44,2.69,1.39,5.93,2.67,8.63,1.31,1.95-.97,3.04-3.05,4.01-5,.54-1.08,1.09-2.32.68-3.46-.53-1.5-2.35-2-3.87-2.46-4.48-1.37-8.48-4.42-10.77-8.5-1.45-2.58-2.27-5.59-4.36-7.68-1.2-1.2-2.74-2-4.08-3.06s-2.52-2.52-2.55-4.22,1.59-2.49,3.62-2.91Z"/>
        <path d="M304.39,26.96c-.86-2.62-.11-5.47-.15-8.23s-1.47-6-4.22-6.25c-1.62-.15-3.15.84-4.21,2.06-1.96,2.26-2.74,5.31-3.31,8.25s-1,5.99-2.45,8.61c-1.46,2.62-4.23,4.77-7.22,4.48-1.35-.13-2.6-.74-3.87-1.24s-2.64-.91-3.96-.62-2.54,1.49-2.4,2.84c.09.82.63,1.52,1.24,2.06,2.07,1.86,4.94,2.45,7.54,3.43,2.6.98,5.3,2.74,5.78,5.48.54,3.09-1.93,6.51-.33,9.2,1.15,1.93,4.03,2.27,5.97,1.14s3.03-3.33,3.51-5.53.45-4.47.73-6.7c.51-4.1,2.1-8.07,4.57-11.39.89-1.2,1.9-2.33,2.51-3.69s.58-2.96.27-3.91Z"/>
        <path d="M302.83,81.05c-.19-1.54-1.16-2.84-1.91-4.2-.75-1.35-.52-2.38.24-4.19,2.04-4.88-5.24-9.73-10.5-10.34-3.23-.38-6.49.58-9.44,1.97-5.97,2.81-10.97,7.37-16.9,10.26-4.45,2.17-9.36,3.37-13.68,5.78-4.33,2.42-8.2,6.55-8.33,11.5-.12,4.5,2.81,8.44,5.59,11.97,2.01,2.55,4.19,5.23,7.27,6.26,2.31.77,4.81.49,7.24.33,5.67-.37,11.38-.08,16.98.88,3.22.55,6.6,1.31,9.68.23,2.76-.96,4.82-3.25,6.75-5.44,1.82-2.07,3.7-4.25,4.35-6.93.85-3.49-.56-7.26.4-10.73.69-2.51,2.58-4.79,2.26-7.37ZM293.74,86.32c-1.42,1.48-.63,4.91-2.22,7.22-1.23,1.79-3.67,2.26-5.29,3.7-1.77,1.59-2.4,4.2-4.26,5.68-2.02,1.59-5.01,1.38-7.28.18-2.27-1.2-3.98-3.21-5.64-5.18-.83-.98-1.7-2.15-1.48-3.41.13-.71.59-1.31,1.07-1.85,1.72-1.95,3.83-3.55,6.17-4.68,1.75-.85,3.63-1.44,5.31-2.41,1.47-.84,2.77-1.95,4.15-2.95,1.38-.99,2.88-1.88,4.55-2.19,1.67-.31,3.54.06,4.71,1.28,1.18,1.22,1.39,3.38.22,4.6Z"/>
        <path d="M360.5,34.32c2.23-1.5,4.23-4.06,3.57-6.66-.55-2.19-2.85-3.58-5.1-3.8s-4.47.49-6.62,1.2c-9.91,3.23-19.81,6.46-29.72,9.69-2.22.72-4.47,1.47-6.36,2.84s-3.37,3.5-3.37,5.83,1.86,4.69,4.19,4.69c2.19,0,3.91-1.84,5.96-2.6,2.61-.96,5.5-.1,8.14.76,4.24,1.39,8.48,2.77,12.72,4.16,2.15.7,4.52,1.59,5.51,3.63,1.08,2.23-.06,5.06-2.04,6.55s-4.56,1.92-7.03,2.03c-2.06.09-4.15-.01-6.13.54s-3.89,1.93-4.38,3.93c-.59,2.38,1.11,4.89,3.34,5.91s4.82.86,7.23.36c5.34-1.11,10.33-3.84,14.16-7.72,2.3-2.33,4.67-5.3,7.95-5.24,2.95.06,5.19,2.62,6.76,5.13s3.04,5.34,5.71,6.58c2.94,1.37,6.84.11,8.42-2.73,1.26-2.27,1.04-5.15-.06-7.5s-2.99-4.24-5-5.89c-5.93-4.86-13.26-7.98-20.87-8.88-2.98-.35-6.51-.67-8-3.28-1.47-2.56.15-6.01,2.68-7.55s6.08-.44,8.36-1.98Z"/>
        <path d="M370.23,96.61c-.84-2.33,1.45-4.76,3.87-5.28s4.92.19,7.39.34,5.34-.51,6.46-2.72c1.34-2.66-.85-6-3.66-6.99s-5.9-.32-8.8.36c-4.24.99-8.49,1.98-12.73,2.97-1.59.37-3.23.74-4.83.47-1.64-.28-3.11-1.21-4.76-1.41-2.3-.28-4.49.87-6.69,1.58-8.48,2.72-17.46-1.13-26.13-3.15-3.47-.81-7.65-1.12-10.06,1.51-1.5,1.64-1.87,4.16-1.12,6.26s2.49,3.76,4.52,4.67c3.96,1.76,8.53.76,12.85,1.01,6.37.37,12.48,3.52,18.83,2.97,4.53-.39,9.55-2.55,13.29.05,2.56,1.79,3.39,5.25,3.19,8.37s-1.2,6.14-1.45,9.25.44,6.59,2.9,8.51c3.64,2.84,9.49.59,11.63-3.51s1.41-9.12-.22-13.44c-1.64-4.32-3.28-8.5-4.48-11.83Z"/>
        <path d="M399.82,17.4c3,1.34,6.28-.78,9.33-1.98,4.66-1.83,9.88-1.52,14.81-.65,4.93.87,9.79,2.26,14.8,2.5,2.03.1,4.46-.22,5.39-2.03.75-1.46.11-3.34-1.1-4.46s-2.85-1.62-4.45-2c-6.75-1.6-13.78-1.48-20.71-1.36-2.85.05-5.7.1-8.55.15-5.39.1-13.99-1.81-15.58,3.34-1.18,3.81,5.1,6.06,6.06,6.49Z"/>
        <path d="M421.39,31.19c-1.22-.78-1.1-2.78-.03-3.75s2.71-1.05,4.1-.65,2.63,1.19,3.93,1.82c2.23,1.09,4.67,1.72,7.15,1.85,2.59.13,5.72-.7,6.47-3.18.66-2.17-1-4.48-3.07-5.39s-4.43-.76-6.69-.64c-5.64.32-11.29.47-16.94.62-5.11.13-10.22.27-15.33.4-1.59.04-3.21.09-4.7.62s-2.88,1.63-3.33,3.16c-.64,2.17.79,4.48,2.65,5.77s4.1,1.89,6.14,2.87c2.67,1.27,4.98,3.19,7.22,5.11,3.16,2.7,6.51,5.98,6.58,10.14.04,2.63-1.26,5.07-2,7.59s-.71,5.67,1.35,7.3c1.67,1.32,4.24,1.09,5.93-.2s2.59-3.43,2.78-5.55-.23-4.25-.76-6.31c-.26-1.04-.56-2.1-.46-3.17s.67-2.17,1.67-2.56c1.35-.53,2.91.48,3.47,1.81s.38,2.85.11,4.27-.64,2.87-.4,4.29c.5,3.04,3.65,5.07,6.72,5.33,4.39.38,8.96-2.43,10.28-6.63.66-2.11.42-4.69-1.24-6.16-1.2-1.07-2.91-1.37-4.23-2.31-2.27-1.61-2.88-4.67-4.46-6.96-1.31-1.9-3.27-3.23-5.19-4.52-2.56-1.72-5.17-3.34-7.73-4.98Z"/>
        <path d="M409.22,80.1c-2.18-.42-4.42.37-6.63.55-1.74.14-3.54.28-5.19-.29s-3.12-2.04-3.12-3.79c0-1.05.53-2.03,1.16-2.86,1.38-1.79,3.36-3.1,5.52-3.75,2.9-.87,6-.58,9.01-.28,11.49,1.14,22.97,2.27,34.46,3.41,1.7.17,3.47.33,5.06-.3,1.29-.51,2.33-1.5,3.58-2.12,3.53-1.75,6.63-1.6,11.63-1.36,3.28.16,3.49,6.21,1.93,9.1-1.52,2.82-5.16,3.6-8.36,3.89-6.09.55-12.25.44-18.32-.35-1.17,2.2.22,5.09,2.4,6.3s4.83,1.13,7.29.73,4.91-1.06,7.39-.9c1.16.07,2.38.37,3.18,1.21,1.16,1.21,1.08,3.11.94,4.78-.51,5.8-1.03,11.59-1.54,17.39-.33,3.77-.67,7.53-1,11.3-.14,1.53-.31,3.17-1.28,4.37-1.27,1.57-3.48,1.92-5.49,2.16-1.31.15-2.64.3-3.93.04s-2.55-1.03-3.07-2.23c-.95-2.19.78-4.53,2.23-6.43,3.46-4.55,5.8-9.84,7.94-15.14,1.04-2.58,1.91-5.91-.09-7.84-1.26-1.21-3.23-1.33-4.94-.97s-3.32,1.12-5.04,1.44c-4.38.8-8.7-1.36-13.08-2.18-5.33-1-10.84.01-16.08,1.43-1.99.54-4,1.14-6.06,1.13s-4.23-.73-5.47-2.38-1.17-4.31.49-5.54c.97-.71,2.23-.84,3.43-.92,6.86-.5,13.79-.67,20.56.53,1.4.25,3.3.29,3.76-1.06.21-.62,0-1.3.06-1.95.16-1.55,1.8-2.52,2.35-3.98.61-1.64-.42-3.57-1.96-4.4s-3.43-.76-5.12-.3-3.26,1.27-4.91,1.88c-4.54,1.68-9.25.59-13.7-.28Z"/>
        <path d="M496.6,48.61c1.65,1.11,3.94.84,5.88.41s3.77-1.68,4.53-3.51.22-4.23-1.47-5.27c-2.12-1.32-4.84-.19-7.33-.06-4.14.21-7.85-2.44-11.9-3.31-3.65-.79-7.45-.1-11.12.59-2.24.42-4.57.88-6.38,2.26s-2.91,3.98-1.87,6.01c.93,1.81,3.1,2.49,4.87,3.49,1.73.97,3.18,2.35,4.62,3.71.67.64,1.37,1.31,1.64,2.2.34,1.12-.09,2.35-.77,3.31s-1.58,1.74-2.34,2.63c-.87,1.01-1.56,2.21-1.76,3.53s.18,2.76,1.16,3.66c1.9,1.73,5.11.72,6.81-1.2s2.48-4.48,3.82-6.67c.67-1.1,1.81-2.22,3.04-1.89.97.26,1.49,1.32,1.78,2.29.9,3.05.7,6.29.82,9.47s.63,6.53,2.66,8.98c1.11,1.35,2.97,2.38,4.58,1.71,1.93-.8,2.27-3.46,1.65-5.46s-1.89-3.8-2.13-5.87c-.25-2.21.7-4.39.74-6.61.08-4.47-3.42-8.13-4.88-12.36-.23-.68-.42-1.4-.29-2.1s.65-1.38,1.35-1.49,1.21.85,2.27,1.56Z"/>
        <path d="M517.58,58.7c-.73-.36-1.57-.27-2.23.2s-1.28,1.12-2.09,1.2c-.73.07-1.43-.36-1.86-.95s-.63-1.31-.78-2.03c-.24-1.18-.34-2.45.19-3.53.48-.99,1.43-1.7,2.48-2.01s2.19-.27,3.25-.03c1.22.28,2.41.84,3.25,1.77s1.26,2.29.89,3.49-1.76,2.57-3.11,1.9Z"/>
        <path d="M527.24,36.24l-2.19-5.77c-.18-.47-.36-.94-.69-1.32-.9-1.02-2.58-.92-3.76-.23-2.4,1.42-3.19,4.62-2.74,7.36s1.87,5.22,2.98,7.77c2.43,5.56,3.46,11.72,2.97,17.76-.22,2.76-.65,5.88,1.16,7.97.48.56,1.35,1.01,1.93.54.33-.27.41-.73.48-1.14.67-4.46,1.34-8.91,2-13.37.28-1.87.56-3.83-.01-5.63-.48-1.54-1.55-2.85-1.97-4.41-.86-3.18.9-6.72-.17-9.55Z"/>
        <path d="M541.51,41.45c-1.43-1.75-1.34-4.2-2.7-6.01-1-1.34-3.05-1.63-4.55-.89s-2.48,2.31-2.83,3.95-.17,3.35.15,4.99c.75,3.84,2.22,7.56,2.36,11.47.19,5.54-2.29,10.76-3.62,16.14-1.58,6.4-1.49,13.21.25,19.57.39,1.43.89,2.88,1.88,3.98s2.6,1.76,4,1.25c1.65-.6,2.39-2.49,2.76-4.2.75-3.38.86-6.89.32-10.31-.77-4.93-2.88-9.66-3-14.65-.09-3.46.78-6.86,1.65-10.21,1.02-3.96,2.04-7.91,3.06-11.87.28-1.09.94-2.39.27-3.21Z"/>
      </g>
      <text class="cls-2" transform="translate(27.78 158.44)"><tspan class="cls-1" x="0" y="0">Cheongju(</tspan><tspan class="cls-3" x="134.9" y="0">州</tspan><tspan class="cls-1" x="162.09" y="0">)’s cheongju(</tspan><tspan class="cls-3" x="335.68" y="0">酒</tspan><tspan class="cls-1" x="362.88" y="0">) Festival</tspan></text>
    </g>
  </g>
</svg>